<svg xmlns="http://www.w3.org/2000/svg" width="24" height="24" fill="none" viewBox="0 0 24 24" id="forward"><path fill="#022639" d="M20.344 7.49099C20.015 6.99499 19.323 6.89799 18.865 7.27899C18.478 7.60099 18.389 8.16199 18.668 8.58199C19.509 9.84699 20 11.366 20 13C20 17.943 15.517 21.839 10.395 20.844C7.276 20.238 4.762 17.724 4.156 14.605C3.161 9.48299 7.057 4.99999 12 4.99999V5.41299C12 5.88799 12.536 6.16599 12.924 5.89099L14.919 4.47799C15.249 4.24399 15.249 3.75499 14.919 3.52199L12.924 2.10899C12.536 1.83399 12 2.11099 12 2.58699V2.99999C6.477 2.99999 2 7.47699 2 13C2 18.903 7.114 23.611 13.153 22.935C17.662 22.43 21.345 18.808 21.916 14.306C22.238 11.776 21.611 9.40399 20.344 7.49099Z"></path><path fill="#678391" d="M14.404 14.397C14.404 15.652 13.801 17.25 11.848 17.25C10.611 17.25 9.862 16.394 9.72 16.17C9.424 15.703 9.684 15.076 10.211 14.91C10.57 14.797 10.961 14.93 11.174 15.24C11.325 15.46 11.536 15.662 11.803 15.662C12.235 15.662 12.646 15.423 12.646 14.453C12.646 13.613 12.118 13.232 11.459 13.232C11.19 13.232 10.922 13.271 10.684 13.324C10.262 13.417 9.87 13.07 9.886 12.638L9.99 9.893C10.008 9.394 10.418 9 10.916 9H13.326C13.764 9 14.119 9.355 14.119 9.793C14.119 10.231 13.764 10.586 13.326 10.586H11.552L11.495 11.979C11.586 11.941 11.822 11.853 12.111 11.853C14.097 11.853 14.404 13.621 14.404 14.397Z"></path></svg>