<svg xmlns="http://www.w3.org/2000/svg" viewBox="0 0 90 90" id="play"><rect width="14.63" height=".63" x="64.69" y="55.68" transform="rotate(-45 72 55.986)"></rect><rect width="26.98" height=".63" x="53.69" y="56.83" transform="rotate(-45 67.18 57.143)"></rect><rect width="38.03" height=".63" x="42.88" y="58.44" transform="rotate(-45 61.887 58.755)"></rect><rect width="48.43" height=".63" x="32.16" y="60.28" transform="rotate(-45 56.376 60.588)"></rect><rect width="56.88" height=".63" x="23.11" y="61.43" transform="rotate(-45 51.544 61.74)"></rect><rect width="59.15" height=".63" x="19.33" y="60.39" transform="rotate(-45 48.904 60.703)"></rect><rect width="60.13" height=".63" x="16.66" y="58.9" transform="rotate(-45 46.724 59.206)"></rect><rect width="60.45" height=".63" x="14.54" y="57.18" transform="rotate(-45 44.763 57.489)"></rect><rect width="60.13" height=".63" x="12.75" y="55.45" transform="rotate(-45 42.818 55.764)"></rect><rect width="59.48" height=".63" x="11.01" y="53.84" transform="rotate(-45 40.754 54.16)"></rect><rect width="58.83" height=".63" x="9.27" y="52.23" transform="rotate(-45 38.677 52.55)"></rect><rect width="58.18" height=".63" x="7.52" y="50.63" transform="rotate(-45 36.612 50.945)"></rect><rect width="57.53" height=".63" x="5.78" y="49.02" transform="rotate(-45 34.54 49.323)"></rect><rect width="55.9" height=".63" x="4.87" y="47.06" transform="rotate(-45 32.815 47.378)"></rect><rect width="52.98" height=".63" x="5.07" y="44.65" transform="rotate(-45 31.553 44.96)"></rect><rect width="49.73" height=".63" x="5.54" y="42.12" transform="rotate(-45 30.407 42.435)"></rect><rect width="46.47" height=".63" x="6.02" y="39.59" transform="rotate(-45 29.261 39.91)"></rect><rect width="43.23" height=".63" x="6.5" y="37.07" transform="rotate(-45 28.103 37.38)"></rect><rect width="39.98" height=".63" x="6.97" y="34.54" transform="rotate(-45 26.957 34.854)"></rect><rect width="36.73" height=".63" x="7.45" y="32.01" transform="rotate(-45 25.811 32.329)"></rect><rect width="33.48" height=".63" x="7.92" y="29.48" transform="rotate(-45 24.665 29.803)"></rect><rect width="30.23" height=".63" x="8.4" y="26.95" transform="rotate(-45 23.512 27.261)"></rect><rect width="26.98" height=".63" x="8.88" y="24.43" transform="rotate(-45 22.366 24.736)"></rect><rect width="23.73" height=".63" x="9.35" y="21.9" transform="rotate(-45 21.22 22.21)"></rect><rect width="20.48" height=".63" x="9.83" y="19.37" transform="rotate(-45 20.062 19.68)"></rect><rect width="17.23" height=".63" x="10.3" y="16.84" transform="rotate(-45 18.916 17.155)"></rect><rect width="13.45" height=".63" x="10.86" y="14.5" transform="rotate(-45 17.578 14.819)"></rect><rect width="7.85" height=".63" x="11.91" y="12.57" transform="rotate(-45 15.835 12.88)"></rect><path fill-rule="evenodd" d="m64.01,32.78L24.75,9.23c-5.24-3.14-11.89.63-11.89,6.73v47.1c0,6.1,6.66,9.87,11.89,6.73l39.26-23.55c5.08-3.05,5.08-10.41,0-13.46"></path></svg>