<svg xmlns="http://www.w3.org/2000/svg" width="24" height="24" fill="none" viewBox="0 0 24 24" id="replay"><path fill="#022639" d="M12 3.00001V2.58701C12 2.11201 11.464 1.83401 11.076 2.10901L9.08 3.52201C8.75 3.75601 8.75 4.24501 9.08 4.47801L11.075 5.89101C11.464 6.16601 12 5.88901 12 5.41301V5.00001C16.943 5.00001 20.839 9.48301 19.844 14.605C19.238 17.724 16.724 20.238 13.605 20.844C8.483 21.839 4 17.943 4 13C4 11.366 4.491 9.84701 5.332 8.58101C5.611 8.16201 5.521 7.60101 5.135 7.27801C4.678 6.89701 3.985 6.99401 3.656 7.49001C2.39 9.40301 1.762 11.776 2.083 14.306C2.654 18.807 6.337 22.43 10.846 22.935C16.886 23.611 22 18.903 22 13C22 7.47701 17.523 3.00001 12 3.00001Z"></path><path fill="#678391" d="M14.404 14.397C14.404 15.652 13.801 17.25 11.848 17.25C10.611 17.25 9.862 16.394 9.72 16.17C9.424 15.703 9.684 15.076 10.211 14.91C10.57 14.797 10.961 14.93 11.174 15.24C11.325 15.46 11.536 15.662 11.803 15.662C12.235 15.662 12.646 15.423 12.646 14.453C12.646 13.613 12.118 13.232 11.459 13.232C11.19 13.232 10.922 13.271 10.684 13.324C10.262 13.417 9.87 13.07 9.886 12.638L9.99 9.893C10.008 9.394 10.418 9 10.916 9H13.326C13.764 9 14.119 9.355 14.119 9.793C14.119 10.231 13.764 10.586 13.326 10.586H11.552L11.495 11.979C11.586 11.941 11.822 11.853 12.111 11.853C14.097 11.853 14.404 13.621 14.404 14.397Z"></path></svg>